<svg width="12" height="12" viewBox="0 0 12 12" fill="none" xmlns="http://www.w3.org/2000/svg">
<path d="M8.23532 4.29618C8.27599 4.33681 8.30826 4.38507 8.33028 4.43818C8.3523 4.49129 8.36363 4.54822 8.36363 4.60571C8.36363 4.66321 8.3523 4.72014 8.33028 4.77325C8.30826 4.82636 8.27599 4.87461 8.23532 4.91524L5.17282 7.97774C5.13218 8.01842 5.08393 8.05069 5.03082 8.07271C4.97771 8.09473 4.92078 8.10606 4.86328 8.10606C4.80579 8.10606 4.74886 8.09473 4.69575 8.07271C4.64264 8.05069 4.59438 8.01842 4.55375 7.97774L3.24125 6.66524C3.15916 6.58315 3.11304 6.47181 3.11304 6.35571C3.11304 6.23962 3.15916 6.12827 3.24125 6.04618C3.32335 5.96409 3.43469 5.91797 3.55078 5.91797C3.66688 5.91797 3.77822 5.96409 3.86032 6.04618L4.86328 7.0497L7.61625 4.29618C7.65688 4.2555 7.70514 4.22323 7.75825 4.20122C7.81136 4.1792 7.86829 4.16787 7.92578 4.16787C7.98328 4.16787 8.04021 4.1792 8.09332 4.20122C8.14643 4.22323 8.19468 4.2555 8.23532 4.29618ZM11.4258 5.91821C11.4258 7.04309 11.0922 8.14271 10.4673 9.07802C9.84232 10.0133 8.95405 10.7423 7.9148 11.1728C6.87554 11.6033 5.73197 11.7159 4.62871 11.4964C3.52544 11.277 2.51203 10.7353 1.71661 9.93988C0.921203 9.14447 0.379521 8.13106 0.160068 7.02779C-0.0593859 5.92452 0.0532456 4.78096 0.483719 3.7417C0.914192 2.70245 1.64317 1.81418 2.57848 1.18923C3.51378 0.564279 4.6134 0.230713 5.73828 0.230713C7.24621 0.232305 8.69193 0.832034 9.75819 1.8983C10.8245 2.96457 11.4242 4.41028 11.4258 5.91821ZM10.5508 5.91821C10.5508 4.96639 10.2685 4.03594 9.73973 3.24453C9.21093 2.45312 8.45932 1.83629 7.57995 1.47204C6.70058 1.1078 5.73295 1.01249 4.79941 1.19818C3.86588 1.38388 3.00837 1.84222 2.33533 2.51526C1.66229 3.1883 1.20395 4.04581 1.01825 4.97934C0.832563 5.91287 0.927867 6.88051 1.29211 7.75988C1.65636 8.63925 2.27319 9.39086 3.0646 9.91966C3.85601 10.4485 4.78646 10.7307 5.73828 10.7307C7.01419 10.7293 8.23743 10.2218 9.13964 9.31957C10.0418 8.41736 10.5493 7.19412 10.5508 5.91821Z" fill="#C3C3C4"/>
</svg>
