<svg width="30" height="31" viewBox="0 0 30 31" fill="none" xmlns="http://www.w3.org/2000/svg">
<path d="M15 16.7822C15.6213 16.7822 16.125 16.2785 16.125 15.6572C16.125 15.0359 15.6213 14.5322 15 14.5322C14.3787 14.5322 13.875 15.0359 13.875 15.6572C13.875 16.2785 14.3787 16.7822 15 16.7822Z" fill="#434345"/>
<path d="M21 16.7822C21.6213 16.7822 22.125 16.2785 22.125 15.6572C22.125 15.0359 21.6213 14.5322 21 14.5322C20.3787 14.5322 19.875 15.0359 19.875 15.6572C19.875 16.2785 20.3787 16.7822 21 16.7822Z" fill="#434345"/>
<path d="M9 16.7822C9.62132 16.7822 10.125 16.2785 10.125 15.6572C10.125 15.0359 9.62132 14.5322 9 14.5322C8.37868 14.5322 7.875 15.0359 7.875 15.6572C7.875 16.2785 8.37868 16.7822 9 16.7822Z" fill="#434345"/>
</svg>
